<svg width="155" height="27" viewBox="0 0 155 27" fill="none" xmlns="http://www.w3.org/2000/svg">
<path d="M6.86994 20.3099C6.35994 19.8199 5.88994 18.9199 5.46994 17.5999L0.319941 3.14986C0.239941 2.89986 0.189941 2.65987 0.189941 2.43987C0.189941 1.89987 0.389942 1.45987 0.779942 1.11987C1.16994 0.779865 1.61994 0.609863 2.13994 0.609863C2.56994 0.609863 2.96994 0.739863 3.31994 0.999863C3.66994 1.25986 3.92994 1.64987 4.08994 2.15987L8.99994 16.7499L13.9199 2.15987C14.0799 1.64987 14.3399 1.25986 14.6899 0.999863C15.0399 0.739863 15.4399 0.609863 15.8699 0.609863C16.3899 0.609863 16.8399 0.779865 17.2299 1.11987C17.6199 1.45987 17.8199 1.89987 17.8199 2.43987C17.8199 2.65987 17.7799 2.89986 17.6899 3.14986L12.5399 17.5999C12.1199 18.9099 11.6499 19.8199 11.1399 20.3099C10.6299 20.7999 9.90994 21.0399 8.99994 21.0399C8.08994 21.0399 7.37994 20.7999 6.86994 20.3099Z" fill="white"/>
<path d="M21.08 19.99C20.16 19.29 19.71 18.31 19.71 17.05C19.71 16.49 19.77 16 19.89 15.58C20.01 15.16 20.17 14.79 20.38 14.48C20.59 14.17 20.89 13.91 21.28 13.7C21.67 13.49 22.07 13.31 22.51 13.18C22.94 13.05 23.49 12.94 24.15 12.87C24.81 12.8 25.48 12.75 26.16 12.72C26.84 12.7 27.66 12.69 28.61 12.69V11.61C28.61 10.73 28.4 10.09 27.98 9.68996C27.56 9.27996 26.94 9.07996 26.11 9.07996C25.93 9.07996 25.75 9.08996 25.57 9.09996C25.39 9.10996 25.2 9.13996 25.01 9.16996C24.82 9.19996 24.66 9.22996 24.52 9.24996C24.38 9.26996 24.21 9.30996 24.01 9.36996C23.81 9.42996 23.66 9.46996 23.56 9.49996C23.46 9.52996 23.31 9.57996 23.11 9.64996C22.91 9.71996 22.79 9.75996 22.73 9.77996C22.67 9.79996 22.55 9.84996 22.35 9.92996C22.15 10.01 22.05 10.05 22.04 10.05C21.94 10.1 21.8 10.12 21.64 10.12C21.31 10.12 21.03 9.97996 20.8 9.70996C20.57 9.43996 20.45 9.12996 20.45 8.77996C20.45 8.31996 20.66 7.99996 21.07 7.79996C22.63 7.06996 24.37 6.70996 26.27 6.70996C27.14 6.70996 27.91 6.80996 28.6 6.99996C29.29 7.19996 29.89 7.49997 30.42 7.90997C30.95 8.31997 31.35 8.86996 31.64 9.56996C31.93 10.27 32.07 11.09 32.07 12.04V19.14C32.07 19.7 31.91 20.13 31.58 20.44C31.25 20.75 30.86 20.9 30.4 20.9C29.94 20.9 29.54 20.75 29.21 20.44C28.88 20.13 28.71 19.7 28.71 19.14V18.68C28.41 19.39 27.92 19.96 27.25 20.41C26.58 20.85 25.7 21.07 24.61 21.07C23.17 21.05 22 20.69 21.08 19.99ZM27.51 17.74C28.23 17 28.6 16.07 28.6 14.94V14.53C27.66 14.53 26.91 14.54 26.36 14.57C25.81 14.6 25.29 14.65 24.79 14.73C24.3 14.81 23.93 14.94 23.7 15.11C23.46 15.28 23.28 15.51 23.15 15.78C23.02 16.05 22.95 16.41 22.95 16.84C22.95 17.49 23.14 17.99 23.52 18.33C23.9 18.67 24.41 18.84 25.04 18.84C25.96 18.85 26.78 18.48 27.51 17.74Z" fill="white"/>
<path d="M36.2799 20.3799C35.9499 20.0399 35.7899 19.5699 35.7899 18.9599V8.62992C35.7899 8.06992 35.9599 7.63993 36.2999 7.32993C36.6399 7.01993 37.0699 6.86993 37.5799 6.86993C38.0899 6.86993 38.5099 7.01992 38.8399 7.31992C39.1699 7.61992 39.3299 8.04992 39.3299 8.59992V9.08992C39.7399 8.29992 40.3499 7.69992 41.1399 7.28992C41.9299 6.87992 42.8799 6.66992 43.9799 6.66992C44.6599 6.66992 45.2899 6.77992 45.8899 6.99992C46.4899 7.21992 47.0199 7.53992 47.4899 7.95992C47.9599 8.37992 48.3299 8.94992 48.5999 9.63992C48.8699 10.3399 49.0099 11.1399 49.0099 12.0299V18.9499C49.0099 19.5599 48.8399 20.0299 48.4999 20.3699C48.1599 20.7099 47.7299 20.8799 47.1999 20.8799C46.6999 20.8799 46.2899 20.7099 45.9599 20.3699C45.6299 20.0299 45.4699 19.5599 45.4699 18.9499V12.0199C45.4699 11.0599 45.2199 10.3299 44.7199 9.81992C44.2199 9.30992 43.5799 9.05992 42.7899 9.05992C41.8499 9.05992 41.0399 9.42993 40.3499 10.1599C39.6599 10.8999 39.3199 11.8599 39.3199 13.0399V18.9499C39.3199 19.5599 39.1499 20.0299 38.8199 20.3699C38.4899 20.7099 38.0599 20.8799 37.5399 20.8799C37.0299 20.8899 36.6099 20.7199 36.2799 20.3799Z" fill="white"/>
<path d="M63.1599 25.6899C62.8299 25.3599 62.6599 24.8899 62.6599 24.2899V18.8099C61.7599 20.3099 60.2699 21.0599 58.1999 21.0599C56.2899 21.0599 54.7599 20.4199 53.6199 19.1499C52.4699 17.8799 51.8999 16.1499 51.8999 13.9599C51.8999 12.5799 52.1399 11.3499 52.6099 10.2599C53.0799 9.16993 53.7899 8.29993 54.7299 7.64993C55.6699 6.99993 56.7599 6.67993 58.0099 6.67993C60.2099 6.67993 61.7699 7.48993 62.6799 9.10993V8.61993C62.6799 8.04993 62.8399 7.61993 63.1499 7.31993C63.4599 7.01993 63.8799 6.86993 64.4199 6.86993C64.9299 6.86993 65.3499 7.04993 65.6999 7.41993C66.0399 7.77993 66.2099 8.26993 66.2099 8.86993V24.2899C66.2099 24.8999 66.0499 25.3599 65.7199 25.6899C65.3999 26.0199 64.9699 26.1899 64.4599 26.1899C63.9199 26.1899 63.4899 26.0199 63.1599 25.6899ZM61.0699 18.0099C61.6399 17.5599 62.0399 16.9899 62.2799 16.2999C62.5199 15.6099 62.6399 14.8099 62.6399 13.8999C62.6399 12.2999 62.3599 11.0899 61.7899 10.2699C61.2199 9.44993 60.2599 9.03993 58.9199 9.03993C58.2699 9.03993 57.7099 9.18993 57.2299 9.49993C56.7499 9.80993 56.3799 10.2099 56.1299 10.7199C55.8799 11.2199 55.6899 11.7399 55.5699 12.2799C55.4499 12.8199 55.3899 13.3699 55.3899 13.9399C55.3899 14.5599 55.4499 15.1499 55.5799 15.6899C55.7099 16.2299 55.8999 16.7299 56.1699 17.1899C56.4299 17.6499 56.7999 18.0199 57.2799 18.2899C57.7499 18.5599 58.3099 18.6999 58.9499 18.6999C59.7899 18.6799 60.4999 18.4599 61.0699 18.0099Z" fill="white"/>
<path d="M72.9699 20.7299C72.3699 20.5099 71.8299 20.1899 71.3599 19.7699C70.8799 19.3499 70.4999 18.7799 70.2199 18.0899C69.9399 17.3899 69.7999 16.5999 69.7999 15.7099V8.81989C69.7999 8.19989 69.9699 7.72988 70.3099 7.38988C70.6499 7.04988 71.0799 6.87988 71.6099 6.87988C72.1099 6.87988 72.5199 7.04988 72.8499 7.38988C73.1799 7.72988 73.3399 8.20989 73.3399 8.81989V15.7099C73.3399 16.6699 73.5899 17.3999 74.0899 17.9099C74.5899 18.4199 75.2199 18.6699 75.9899 18.6699C76.9399 18.6699 77.7599 18.2999 78.4499 17.5699C79.1399 16.8299 79.4899 15.8699 79.4899 14.6899V8.81989C79.4899 8.19989 79.6599 7.72988 79.9899 7.38988C80.3199 7.04988 80.7499 6.87988 81.2699 6.87988C81.7899 6.87988 82.2099 7.04988 82.5399 7.38988C82.8699 7.72988 83.0299 8.20989 83.0299 8.81989V19.1399C83.0299 19.6999 82.8599 20.1299 82.5199 20.4399C82.1799 20.7499 81.7499 20.8999 81.2399 20.8999C80.7299 20.8999 80.3099 20.7499 79.9799 20.4499C79.6499 20.1499 79.4899 19.7299 79.4899 19.1799V18.6599C78.6399 20.2599 77.1099 21.0599 74.8799 21.0599C74.2099 21.0599 73.5699 20.9499 72.9699 20.7299Z" fill="white"/>
<path d="M87.1199 3.52995C86.7399 3.16995 86.5499 2.69995 86.5499 2.12995C86.5499 1.54995 86.7399 1.08996 87.1199 0.729958C87.4999 0.379958 87.9999 0.199951 88.6199 0.199951C89.2299 0.199951 89.7199 0.379958 90.0999 0.729958C90.4799 1.07996 90.6599 1.54995 90.6599 2.12995C90.6599 2.70995 90.4699 3.17995 90.0899 3.52995C89.7099 3.88995 89.2099 4.06995 88.5999 4.06995C87.9899 4.06995 87.4999 3.88995 87.1199 3.52995Z" fill="#29AAFF"/>
<path d="M87.3399 20.3799C87.0099 20.0399 86.8499 19.5599 86.8499 18.9299V8.83987C86.8499 8.21987 87.0099 7.72987 87.3399 7.38987C87.6699 7.04987 88.0899 6.86987 88.6099 6.86987C89.1299 6.86987 89.5499 7.03987 89.8899 7.38987C90.2199 7.72987 90.3899 8.21987 90.3899 8.83987V18.9299C90.3899 19.5499 90.2199 20.0299 89.8899 20.3699C89.5599 20.7099 89.1299 20.8899 88.6099 20.8899C88.0899 20.8899 87.6599 20.7199 87.3399 20.3799Z" fill="white"/>
<path d="M93.48 18.5398C93.48 18.2298 93.59 17.9599 93.8 17.7299C94.01 17.4999 94.28 17.3798 94.61 17.3798C94.84 17.3798 95.09 17.4498 95.34 17.5898C95.75 17.8198 96.09 17.9999 96.33 18.1199C96.58 18.2399 96.98 18.3798 97.54 18.5298C98.09 18.6798 98.65 18.7598 99.2 18.7598C99.75 18.7598 100.23 18.7098 100.66 18.5998C101.09 18.4898 101.45 18.2998 101.76 18.0098C102.07 17.7298 102.22 17.3599 102.22 16.9099C102.22 16.1199 101.57 15.5598 100.26 15.2498L98.06 14.6898C97.39 14.5099 96.85 14.3498 96.44 14.2098C96.03 14.0698 95.61 13.8898 95.18 13.6698C94.76 13.4498 94.43 13.2098 94.21 12.9398C93.98 12.6698 93.8 12.3398 93.66 11.9498C93.52 11.5498 93.45 11.0898 93.45 10.5598C93.45 9.27984 93.97 8.29985 95 7.61985C96.03 6.92985 97.39 6.58984 99.08 6.58984C100.71 6.58984 102.25 6.93985 103.71 7.63985C104.22 7.87985 104.47 8.25985 104.47 8.75985C104.47 9.05985 104.37 9.30984 104.18 9.51984C103.99 9.72984 103.73 9.82985 103.41 9.82985C103.25 9.82985 103.07 9.78985 102.86 9.71985C102.85 9.71985 102.75 9.67985 102.55 9.60985C102.35 9.53985 102.21 9.48985 102.13 9.45985C102.05 9.43985 101.9 9.38985 101.69 9.31985C101.47 9.24985 101.29 9.19985 101.13 9.16985C100.97 9.13985 100.79 9.09984 100.57 9.05984C100.35 9.01985 100.14 8.98985 99.93 8.96985C99.72 8.94985 99.5 8.93985 99.29 8.93985C98.57 8.93985 97.95 9.05985 97.44 9.29985C96.93 9.53985 96.68 9.89985 96.68 10.3998C96.68 10.8398 96.82 11.1599 97.1 11.3699C97.38 11.5799 97.91 11.7698 98.69 11.9498L100.86 12.4998C102.37 12.8698 103.48 13.3798 104.18 14.0198C104.88 14.6598 105.23 15.5498 105.23 16.6898C105.23 18.1199 104.7 19.2098 103.64 19.9598C102.58 20.7098 101.21 21.0898 99.51 21.0898C97.32 21.0898 95.48 20.5498 93.98 19.4698C93.65 19.2298 93.48 18.9198 93.48 18.5398Z" fill="white"/>
<path d="M121.31 18.96C121.31 19.57 121.14 20.04 120.81 20.38C120.48 20.72 120.05 20.89 119.53 20.89C119.02 20.89 118.6 20.72 118.27 20.38C117.94 20.04 117.77 19.57 117.77 18.96V12.03C117.77 11.07 117.52 10.34 117.03 9.83C116.54 9.32 115.9 9.07 115.13 9.07C114.19 9.07 113.37 9.43 112.68 10.15C111.98 10.87 111.64 11.8 111.64 12.96V18.97C111.64 19.59 111.48 20.06 111.15 20.4C110.82 20.74 110.39 20.9 109.87 20.9C109.35 20.9 108.93 20.73 108.6 20.39C108.27 20.05 108.11 19.58 108.11 18.97L108.1 2.66C108.1 2.05 108.26 1.58 108.59 1.25C108.92 0.92 109.34 0.75 109.86 0.75C110.39 0.75 110.82 0.92 111.15 1.25C111.48 1.59 111.65 2.06 111.65 2.66V8.78C112.6 7.38 114.1 6.68 116.16 6.68C116.86 6.68 117.51 6.78 118.11 6.99C118.72 7.2 119.26 7.51 119.75 7.93C120.23 8.34 120.62 8.9 120.9 9.6C121.18 10.3 121.32 11.1 121.32 12V18.96H121.31Z" fill="white"/>
<path d="M126.78 20.3C126.38 19.92 126.19 19.41 126.19 18.79V2.78996C126.19 2.16996 126.39 1.65996 126.79 1.27996C127.19 0.899961 127.66 0.709961 128.21 0.709961C128.76 0.709961 129.23 0.899961 129.63 1.27996C130.03 1.65996 130.24 2.16996 130.24 2.78996V18.8C130.24 19.42 130.04 19.93 129.63 20.31C129.23 20.69 128.75 20.88 128.19 20.88C127.64 20.87 127.17 20.68 126.78 20.3Z" fill="white"/>
<path d="M136.81 18.4399C135.09 16.5699 134.23 13.9899 134.23 10.7099C134.23 7.4299 135.09 4.8499 136.81 2.9699C138.53 1.0899 140.97 0.149902 144.12 0.149902C147.29 0.149902 149.73 1.0899 151.44 2.9699C153.15 4.8499 154.01 7.4299 154.01 10.7099C154.01 13.9899 153.15 16.5699 151.44 18.4399C149.73 20.3099 147.29 21.2499 144.12 21.2499C140.96 21.2499 138.53 20.3199 136.81 18.4399ZM148.34 16.1799C149.27 14.9099 149.74 13.0799 149.74 10.7099C149.74 8.3399 149.28 6.5199 148.35 5.2399C147.42 3.9599 146.01 3.3199 144.11 3.3199C142.22 3.3199 140.81 3.9599 139.88 5.2399C138.95 6.5199 138.48 8.3399 138.48 10.6999C138.48 13.0799 138.94 14.8999 139.87 16.1699C140.8 17.4399 142.21 18.0799 144.11 18.0799C146 18.0899 147.41 17.4599 148.34 16.1799Z" fill="white"/>
<path d="M71.4299 26.68C71.3699 26.62 71.3399 26.55 71.3399 26.45V24.21H70.6499C70.5799 24.21 70.5199 24.19 70.4799 24.14C70.4399 24.09 70.4199 24.04 70.4199 23.97C70.4199 23.91 70.4399 23.85 70.4799 23.8C70.5199 23.75 70.5799 23.73 70.6499 23.73H72.6399C72.7099 23.73 72.7699 23.75 72.8099 23.8C72.8499 23.85 72.8699 23.9 72.8699 23.97C72.8699 24.03 72.8499 24.09 72.8099 24.14C72.7699 24.19 72.7099 24.21 72.6399 24.21H71.9499V26.45C71.9499 26.54 71.9199 26.62 71.8599 26.68C71.7999 26.74 71.7299 26.77 71.6499 26.77C71.5599 26.77 71.4899 26.74 71.4299 26.68Z" fill="white"/>
<path d="M76.8299 26.68C76.7699 26.62 76.7399 26.55 76.7399 26.45V24.05C76.7399 23.96 76.7699 23.88 76.8299 23.82C76.8899 23.76 76.9599 23.73 77.0399 23.73C77.1199 23.73 77.1899 23.76 77.2499 23.82C77.3099 23.88 77.3399 23.95 77.3399 24.05V24.95H78.6499V24.05C78.6499 23.96 78.6799 23.88 78.7399 23.82C78.7999 23.76 78.8699 23.73 78.9599 23.73C79.0399 23.73 79.1099 23.76 79.1699 23.82C79.2299 23.88 79.2599 23.95 79.2599 24.05V26.45C79.2599 26.54 79.2299 26.62 79.1699 26.68C79.1099 26.74 79.0399 26.77 78.9599 26.77C78.8799 26.77 78.8099 26.74 78.7499 26.68C78.6899 26.62 78.6599 26.55 78.6599 26.45V25.44H77.3499V26.45C77.3499 26.54 77.3199 26.62 77.2599 26.68C77.1999 26.74 77.1299 26.77 77.0499 26.77C76.9599 26.77 76.8899 26.74 76.8299 26.68Z" fill="white"/>
<path d="M83.5299 26.67C83.4699 26.6 83.4399 26.52 83.4399 26.43V24.1C83.4399 24 83.4699 23.91 83.5199 23.85C83.5699 23.78 83.6499 23.75 83.7499 23.75H85.2599C85.3299 23.75 85.3799 23.77 85.4299 23.82C85.4699 23.87 85.4899 23.92 85.4899 23.99C85.4899 24.05 85.4699 24.11 85.4299 24.16C85.3899 24.21 85.3299 24.23 85.2599 24.23H84.0399V25H85.1699C85.2399 25 85.2999 25.02 85.3399 25.07C85.3799 25.12 85.3999 25.17 85.3999 25.23C85.3999 25.29 85.3799 25.35 85.3399 25.39C85.2999 25.44 85.2399 25.46 85.1699 25.46H84.0399V26.3H85.2999C85.3699 26.3 85.4199 26.32 85.4599 26.37C85.4999 26.42 85.5199 26.47 85.5199 26.54C85.5199 26.6 85.4999 26.66 85.4599 26.7C85.4199 26.75 85.3699 26.77 85.2999 26.77H83.7299C83.6599 26.77 83.5899 26.74 83.5299 26.67Z" fill="white"/>
<path d="M95.0099 26.76C94.8599 26.71 94.7299 26.65 94.6099 26.56C94.4899 26.47 94.3999 26.36 94.3399 26.21C94.2799 26.07 94.2399 25.91 94.2399 25.73V24.05C94.2399 23.96 94.2699 23.88 94.3299 23.82C94.3899 23.76 94.4599 23.73 94.5399 23.73C94.6199 23.73 94.6999 23.76 94.7499 23.82C94.8099 23.88 94.8399 23.95 94.8399 24.05V25.72C94.8399 25.83 94.8599 25.93 94.8999 26.01C94.9399 26.09 94.9899 26.16 95.0499 26.21C95.1099 26.26 95.1799 26.3 95.2599 26.32C95.3399 26.35 95.4199 26.36 95.4999 26.36C95.5799 26.36 95.6699 26.35 95.7399 26.32C95.8199 26.29 95.8899 26.26 95.9499 26.21C96.0099 26.16 96.0599 26.09 96.0999 26.01C96.1399 25.93 96.1599 25.83 96.1599 25.72V24.05C96.1599 23.96 96.1899 23.88 96.2499 23.82C96.3099 23.76 96.3799 23.73 96.4599 23.73C96.5399 23.73 96.6099 23.76 96.6699 23.82C96.7299 23.88 96.7599 23.95 96.7599 24.05V25.73C96.7599 25.91 96.7299 26.07 96.6599 26.21C96.5899 26.35 96.4999 26.47 96.3899 26.56C96.2699 26.65 96.1399 26.72 95.9899 26.76C95.8399 26.81 95.6699 26.83 95.4999 26.83C95.3299 26.82 95.1599 26.8 95.0099 26.76Z" fill="white"/>
<path d="M101.01 26.7C100.96 26.65 100.93 26.59 100.93 26.51V24.11C100.93 24 100.96 23.91 101.02 23.84C101.08 23.77 101.16 23.74 101.25 23.74C101.31 23.74 101.38 23.76 101.45 23.8C101.52 23.84 101.57 23.89 101.62 23.96L103.01 25.87V24.01C103.01 23.93 103.04 23.87 103.09 23.82C103.14 23.77 103.21 23.75 103.28 23.75C103.35 23.75 103.42 23.77 103.47 23.82C103.52 23.87 103.55 23.93 103.55 24.01V26.36C103.55 26.48 103.52 26.58 103.46 26.65C103.4 26.73 103.32 26.76 103.23 26.76C103.17 26.76 103.1 26.74 103.03 26.7C102.96 26.66 102.9 26.6 102.85 26.54L101.47 24.64V26.5C101.47 26.58 101.44 26.64 101.39 26.69C101.33 26.74 101.27 26.76 101.2 26.76C101.13 26.77 101.06 26.75 101.01 26.7Z" fill="white"/>
<path d="M107.81 26.68C107.75 26.62 107.72 26.53 107.72 26.42V24.04C107.72 23.95 107.75 23.88 107.81 23.82C107.87 23.77 107.95 23.74 108.04 23.74H108.9C109.63 23.74 109.99 23.99 109.99 24.49C109.99 24.68 109.94 24.83 109.85 24.95C109.75 25.07 109.61 25.15 109.43 25.19V25.2C109.65 25.23 109.82 25.31 109.94 25.44C110.06 25.57 110.13 25.74 110.13 25.96C110.13 26.06 110.11 26.17 110.06 26.26C110.01 26.36 109.94 26.44 109.86 26.52C109.77 26.6 109.66 26.66 109.51 26.71C109.37 26.76 109.21 26.78 109.03 26.78H108.06C107.94 26.77 107.87 26.74 107.81 26.68ZM108.8 25.02C109.02 25.02 109.17 24.99 109.27 24.92C109.36 24.85 109.41 24.74 109.41 24.57C109.41 24.5 109.4 24.45 109.38 24.4C109.36 24.35 109.34 24.32 109.31 24.29C109.28 24.26 109.24 24.24 109.19 24.23C109.14 24.21 109.09 24.2 109.04 24.2C108.99 24.19 108.93 24.19 108.85 24.19H108.33V25.02H108.8ZM108.86 26.33C108.97 26.33 109.06 26.32 109.13 26.31C109.2 26.3 109.26 26.28 109.32 26.25C109.38 26.22 109.42 26.17 109.45 26.11C109.48 26.05 109.49 25.97 109.49 25.88C109.49 25.8 109.48 25.74 109.46 25.68C109.44 25.63 109.41 25.58 109.37 25.55C109.33 25.52 109.28 25.49 109.21 25.47C109.14 25.45 109.07 25.44 109 25.43C108.93 25.42 108.84 25.42 108.73 25.42H108.32V26.32H108.86V26.33Z" fill="white"/>
<path d="M114.22 26.67C114.16 26.6 114.13 26.52 114.13 26.43V24.1C114.13 24 114.16 23.91 114.21 23.85C114.26 23.78 114.34 23.75 114.44 23.75H115.95C116.02 23.75 116.07 23.77 116.12 23.82C116.16 23.87 116.18 23.92 116.18 23.99C116.18 24.05 116.16 24.11 116.12 24.16C116.08 24.21 116.02 24.23 115.95 24.23H114.73V25H115.86C115.93 25 115.99 25.02 116.03 25.07C116.07 25.12 116.09 25.17 116.09 25.23C116.09 25.29 116.07 25.35 116.03 25.39C115.99 25.44 115.93 25.46 115.86 25.46H114.73V26.3H116C116.07 26.3 116.12 26.32 116.16 26.37C116.2 26.42 116.22 26.47 116.22 26.54C116.22 26.6 116.2 26.66 116.16 26.7C116.12 26.75 116.07 26.77 116 26.77H114.43C114.35 26.77 114.28 26.74 114.22 26.67Z" fill="white"/>
<path d="M122.14 26.0699H120.79L120.6 26.5699C120.58 26.6399 120.54 26.6899 120.49 26.7199C120.44 26.7499 120.39 26.7699 120.32 26.7699C120.24 26.7699 120.18 26.7399 120.12 26.6899C120.06 26.6399 120.03 26.5799 120.03 26.4999C120.03 26.4599 120.04 26.4299 120.05 26.3899L120.98 24.0799C121.04 23.9199 121.11 23.8199 121.18 23.7699C121.26 23.7199 121.35 23.6899 121.46 23.6899C121.57 23.6899 121.66 23.7199 121.74 23.7699C121.82 23.8199 121.88 23.9299 121.94 24.0799L122.87 26.3899C122.88 26.4299 122.89 26.4599 122.89 26.4999C122.89 26.5799 122.86 26.6399 122.8 26.6899C122.74 26.7399 122.67 26.7699 122.6 26.7699C122.54 26.7699 122.48 26.7499 122.43 26.7199C122.38 26.6899 122.34 26.6299 122.32 26.5699L122.14 26.0699ZM121.47 24.2799L120.95 25.6599H122L121.47 24.2799Z" fill="white"/>
<path d="M127.55 26.68C127.49 26.62 127.46 26.55 127.46 26.45V24.21H126.77C126.7 24.21 126.64 24.19 126.6 24.14C126.56 24.09 126.54 24.04 126.54 23.97C126.54 23.91 126.56 23.85 126.6 23.8C126.64 23.75 126.7 23.73 126.77 23.73H128.76C128.83 23.73 128.89 23.75 128.93 23.8C128.97 23.85 128.99 23.9 128.99 23.97C128.99 24.03 128.97 24.09 128.93 24.14C128.89 24.19 128.83 24.21 128.76 24.21H128.07V26.45C128.07 26.54 128.04 26.62 127.98 26.68C127.92 26.74 127.85 26.77 127.77 26.77C127.68 26.77 127.61 26.74 127.55 26.68Z" fill="white"/>
<path d="M134.74 26.0699H133.39L133.2 26.5699C133.18 26.6399 133.14 26.6899 133.09 26.7199C133.04 26.7499 132.99 26.7699 132.92 26.7699C132.84 26.7699 132.78 26.7399 132.72 26.6899C132.66 26.6399 132.63 26.5799 132.63 26.4999C132.63 26.4599 132.64 26.4299 132.65 26.3899L133.58 24.0799C133.64 23.9199 133.71 23.8199 133.78 23.7699C133.86 23.7199 133.95 23.6899 134.06 23.6899C134.17 23.6899 134.26 23.7199 134.34 23.7699C134.42 23.8199 134.49 23.9299 134.54 24.0799L135.47 26.3899C135.48 26.4299 135.49 26.4599 135.49 26.4999C135.49 26.5799 135.46 26.6399 135.4 26.6899C135.34 26.7399 135.27 26.7699 135.2 26.7699C135.14 26.7699 135.08 26.7499 135.03 26.7199C134.98 26.6899 134.94 26.6299 134.92 26.5699L134.74 26.0699ZM134.06 24.2799L133.54 25.6599H134.59L134.06 24.2799Z" fill="white"/>
<path d="M139.52 26.68C139.46 26.62 139.43 26.53 139.43 26.42V24.04C139.43 23.95 139.46 23.88 139.52 23.82C139.58 23.77 139.66 23.74 139.75 23.74H140.61C141.34 23.74 141.7 23.99 141.7 24.49C141.7 24.68 141.65 24.83 141.56 24.95C141.46 25.07 141.32 25.15 141.14 25.19V25.2C141.36 25.23 141.53 25.31 141.65 25.44C141.77 25.57 141.84 25.74 141.84 25.96C141.84 26.06 141.82 26.17 141.77 26.26C141.72 26.36 141.65 26.44 141.57 26.52C141.48 26.6 141.37 26.66 141.22 26.71C141.08 26.76 140.92 26.78 140.74 26.78H139.77C139.66 26.77 139.58 26.74 139.52 26.68ZM140.51 25.02C140.73 25.02 140.88 24.99 140.98 24.92C141.07 24.85 141.12 24.74 141.12 24.57C141.12 24.5 141.11 24.45 141.09 24.4C141.07 24.35 141.05 24.32 141.02 24.29C140.99 24.26 140.95 24.24 140.9 24.23C140.85 24.21 140.8 24.2 140.75 24.2C140.7 24.19 140.64 24.19 140.56 24.19H140.04V25.02H140.51ZM140.57 26.33C140.68 26.33 140.77 26.32 140.84 26.31C140.91 26.3 140.97 26.28 141.03 26.25C141.09 26.22 141.13 26.17 141.16 26.11C141.19 26.05 141.2 25.97 141.2 25.88C141.2 25.8 141.19 25.74 141.17 25.68C141.15 25.63 141.12 25.58 141.08 25.55C141.04 25.52 140.99 25.49 140.92 25.47C140.85 25.45 140.78 25.44 140.71 25.43C140.64 25.42 140.55 25.42 140.44 25.42H140.03V26.32H140.57V26.33Z" fill="white"/>
<path d="M145.93 26.66C145.87 26.59 145.84 26.5 145.84 26.4V24.06C145.84 23.97 145.87 23.89 145.93 23.83C145.99 23.77 146.06 23.74 146.15 23.74C146.23 23.74 146.3 23.77 146.36 23.83C146.42 23.89 146.45 23.96 146.45 24.06V26.29H147.64C147.71 26.29 147.76 26.31 147.81 26.36C147.85 26.41 147.87 26.46 147.87 26.53C147.87 26.59 147.85 26.65 147.81 26.7C147.77 26.75 147.71 26.77 147.64 26.77H146.15C146.07 26.77 145.99 26.73 145.93 26.66Z" fill="white"/>
<path d="M151.82 26.67C151.76 26.6 151.73 26.52 151.73 26.43V24.1C151.73 24 151.76 23.91 151.81 23.85C151.86 23.78 151.94 23.75 152.04 23.75H153.55C153.62 23.75 153.67 23.77 153.72 23.82C153.76 23.87 153.78 23.92 153.78 23.99C153.78 24.05 153.76 24.11 153.72 24.16C153.68 24.21 153.62 24.23 153.55 24.23H152.33V25H153.46C153.53 25 153.59 25.02 153.63 25.07C153.67 25.12 153.69 25.17 153.69 25.23C153.69 25.29 153.67 25.35 153.63 25.39C153.59 25.44 153.53 25.46 153.46 25.46H152.33V26.3H153.59C153.66 26.3 153.71 26.32 153.75 26.37C153.79 26.42 153.81 26.47 153.81 26.54C153.81 26.6 153.79 26.66 153.75 26.7C153.71 26.75 153.66 26.77 153.59 26.77H152.02C151.95 26.77 151.88 26.74 151.82 26.67Z" fill="white"/>
</svg>
