<svg width="74" height="73" viewBox="0 0 74 73" fill="none" xmlns="http://www.w3.org/2000/svg">
<path d="M18.31 62.86C17.34 62.86 16.39 62.36 15.87 61.46L0.590013 35.2C-0.189987 33.86 0.280019 32.16 1.62002 31.39C2.97002 30.62 4.69002 31.08 5.47002 32.41L20.75 58.67C21.53 60.01 21.06 61.71 19.72 62.48C19.27 62.74 18.79 62.86 18.31 62.86Z" fill="#29AAFF"/>
<path d="M30.6501 44.4599C29.6701 44.4599 28.7101 43.9499 28.1901 43.0399L17.9801 25.0799C16.8301 23.1099 14.8601 21.8199 12.5801 21.5399C10.2901 21.2599 8.06005 22.0399 6.46005 23.6899C5.38005 24.7999 3.60005 24.8299 2.48005 23.7599C1.36005 22.6899 1.33006 20.9199 2.41006 19.8099C5.25006 16.8999 9.21005 15.5099 13.2601 15.9999C17.3201 16.4899 20.8201 18.7899 22.8601 22.2999L22.8701 22.3299L33.1 40.2999C33.8601 41.6399 33.3801 43.3499 32.0301 44.0999C31.59 44.3399 31.1201 44.4599 30.6501 44.4599Z" fill="#374EFF"/>
<path d="M31.78 72.5499C30.22 72.5499 28.96 71.2999 28.96 69.7599C28.96 68.2199 30.22 66.9699 31.78 66.9699C36.44 66.9699 40.64 64.4199 42.76 60.3099L43.55 58.7699L44.77 56.4599C45.49 55.0999 47.2 54.5699 48.57 55.2899C49.95 56.0099 50.48 57.6999 49.75 59.0599L48.53 61.3499L47.76 62.8499C44.69 68.8299 38.56 72.5499 31.78 72.5499Z" fill="#374EFF"/>
<path d="M53.01 49.7299C52.57 49.7299 52.12 49.6299 51.7 49.4099C50.32 48.6899 49.79 46.9999 50.52 45.6399L66.87 16.3599C68.19 13.8199 67.82 10.7699 65.9 8.59989C64.39 6.88989 62.21 6.02989 59.92 6.25989C57.63 6.48989 55.67 7.74989 54.52 9.71989C53.75 11.0599 52.03 11.5199 50.68 10.7499C49.33 9.97989 48.86 8.27989 49.64 6.93989C51.7 3.37989 55.24 1.09989 59.36 0.699892C63.48 0.289892 67.41 1.82989 70.14 4.91989C73.59 8.81989 74.26 14.3199 71.86 18.9299L55.5 48.2299C55 49.1899 54.02 49.7299 53.01 49.7299Z" fill="#3063FF"/>
<path d="M33.25 55.0198C32.81 55.7798 32.07 55.8598 31.78 55.8598C31.48 55.8598 30.75 55.7798 30.31 55.0198L14.58 28.0198C13.84 26.7598 12.26 26.1598 10.92 26.7698C9.37997 27.4698 8.81997 29.2998 9.63997 30.7098L25.33 57.6398C26.62 59.8498 28.92 61.3498 31.5 61.4498C34.27 61.5498 36.77 60.1798 38.15 57.8198L39.88 54.8398C40.67 53.4898 40.18 51.7598 38.81 50.9998C37.47 50.2598 35.77 50.7198 35 52.0398L33.25 55.0198Z" fill="#3094FF"/>
<path d="M61.8 11.0599C60.46 10.4499 58.87 11.0499 58.14 12.3099L40.22 43.0699C39.45 44.3999 39.9 46.0999 41.23 46.8699C42.58 47.6499 44.31 47.1999 45.1 45.8599L63.08 14.9999C63.9 13.5799 63.33 11.7499 61.8 11.0599Z" fill="#29AAFF"/>
</svg>
