<svg width="30" height="23" viewBox="0 0 30 23" fill="none" xmlns="http://www.w3.org/2000/svg">
<path d="M24.94 2.70998C24.07 1.67998 18.79 0.45998 18.56 0.57998C18.33 0.69998 17.97 2.34994 17.97 2.34994C17.97 2.34994 16.31 1.99996 14.66 1.99996C13.01 1.99996 11.35 2.34994 11.35 2.34994C11.35 2.34994 11 0.68998 10.76 0.57998C10.52 0.46998 5.24001 1.67998 4.38001 2.70998C1.19001 6.48998 -0.47001 16.1899 0.47999 18.6699C1.00999 20.0499 7.22001 22.57 7.81001 22.45C8.40001 22.33 9.34999 20.68 9.10999 20.2C8.87 19.73 7.68998 19.37 7.21998 19.14C6.74998 18.91 7.10001 18.19 7.69001 18.43C8.38001 18.71 10.17 20.09 14.67 20.09C19.16 20.09 20.95 18.71 21.65 18.43C22.24 18.19 22.6 18.9 22.12 19.14C21.64 19.38 20.46 19.73 20.23 20.2C19.99 20.67 20.94 22.33 21.53 22.45C22.12 22.57 28.33 20.0499 28.86 18.6699C29.79 16.1899 28.13 6.49998 24.94 2.70998ZM11.83 14.3C11.14 15.14 10.36 15.51 9.46003 15.43C8.57003 15.35 7.84004 14.8699 7.28004 13.9799C7.02004 13.5699 6.90003 13.16 6.90003 12.74C6.90003 12.21 7.09003 11.64 7.46003 11.05C8.25003 10.23 9.02999 9.80996 9.78999 9.80996C10.05 9.80996 10.28 9.83994 10.49 9.90994C11.47 10.2399 12.1 10.8399 12.41 11.7199C12.5 11.9899 12.55 12.25 12.55 12.52C12.54 13.13 12.31 13.72 11.83 14.3ZM21.69 14.3C21 15.14 20.22 15.51 19.32 15.43C18.43 15.35 17.7 14.8699 17.14 13.9799C16.88 13.5699 16.76 13.16 16.76 12.74C16.76 12.21 16.95 11.64 17.32 11.05C18.11 10.23 18.89 9.80996 19.65 9.80996C19.91 9.80996 20.14 9.83994 20.35 9.90994C21.33 10.2399 21.96 10.8399 22.27 11.7199C22.36 11.9899 22.41 12.25 22.41 12.52C22.4 13.13 22.16 13.72 21.69 14.3Z" fill="#BDDBED"/>
</svg>
