<svg width="26" height="19" viewBox="0 0 26 19" fill="none" xmlns="http://www.w3.org/2000/svg">
<path fill-rule="evenodd" clip-rule="evenodd" d="M0.869942 5.54004H4.75994L4.30994 4.54004L4.17994 4.20004L4.43994 3.94003L7.85994 0.280029H9.40994L5.45994 4.44003L5.92994 5.55002H12.1699V0.290039H13.4599V5.55002H19.5099L20.1199 4.13004L16.5699 0.290039H18.0699L21.1699 3.63004L21.4099 3.89005L21.2799 4.23004L20.6999 5.55002H24.9399L25.3599 6.00003L24.9099 6.47003L20.3099 6.44003L16.9399 14.57L14.7799 16.75L19.1199 6.44003H13.4599V18.09L12.8299 18.72L12.1699 18.06V6.43002H6.32994L10.3299 16.14L8.16994 13.93L5.11994 6.43002L0.88994 6.46002L0.439941 5.99002L0.869942 5.54004ZM0.499941 5.93002L5.65994 0.300018L5.68994 0.27002H5.71994H20.0999H20.1499L20.1799 0.300018L25.3099 5.93002L25.3599 5.98004L25.3099 6.03003L12.9199 18.66L12.8399 18.71L12.7899 18.66L0.499941 6.04004L0.449942 5.99002L0.499941 5.93002Z" fill="#BDDBED"/>
</svg>
