<svg width="10" height="12" viewBox="0 0 10 12" fill="none" xmlns="http://www.w3.org/2000/svg">
<path d="M8.85004 2.47003V2.32007C8.85004 2.20007 8.73004 2.09009 8.60004 2.09009H7.67003V3.41003H8.60004C8.73004 3.41003 8.85004 3.32007 8.85004 3.20007V3.05005C9.05004 3.06005 9.24004 3.18008 9.24004 3.33008V8.58008C9.24004 8.74008 9.00002 8.87006 8.79002 8.87006H7.47003V9.43005H8.79002C9.41002 9.43005 9.83003 9.04007 9.83003 8.57007V3.32007C9.83003 2.86007 9.44004 2.48003 8.85004 2.47003Z" fill="#BDDBED"/>
<path d="M8.39001 10.6101H0.580017V11.3801H8.39001V10.6101Z" fill="#BDDBED"/>
<path d="M6.98004 0.570068H1.84004C1.38004 0.570068 1.17004 0.800083 1.17004 1.21008V10.73H7.86005V1.21008C7.86005 0.810083 7.43004 0.570068 6.98004 0.570068ZM6.88005 5.65009H2.16005V4.71008H6.88005V5.65009ZM6.88005 4.07007C6.88005 4.22007 6.76005 4.33008 6.60005 4.33008H2.43004C2.28004 4.33008 2.15004 4.21007 2.15004 4.07007V1.77008C2.15004 1.62008 2.27004 1.51007 2.43004 1.51007H6.60005C6.75005 1.51007 6.88005 1.63008 6.88005 1.77008V4.07007Z" fill="#BDDBED"/>
</svg>
