<svg width="12" height="10" viewBox="0 0 12 10" fill="none" xmlns="http://www.w3.org/2000/svg">
<path d="M10.96 5.53003L9.41 3.47998C9.34 3.37998 9.19 3.37998 9.11 3.47998L7.50999 5.53003C7.40999 5.65003 7.5 5.83002 7.66 5.83002H8.69C8.42 7.43002 7.03 8.65002 5.36 8.65002C3.5 8.65002 1.98 7.13002 1.98 5.27002C1.98 3.41002 3.5 1.89001 5.36 1.89001C6.38 1.89001 7.33 2.34 7.98 3.13C8.17 3.37 8.51999 3.40002 8.75999 3.21002C8.99999 3.02002 9.03 2.66999 8.84 2.42999C7.98 1.37999 6.72 0.780029 5.36 0.780029C2.89 0.780029 0.869995 2.79002 0.869995 5.27002C0.869995 7.75002 2.88 9.76001 5.36 9.76001C7.65 9.76001 9.54 8.04002 9.81 5.83002H10.8C10.97 5.83002 11.06 5.66003 10.96 5.53003Z" fill="#BDDBED"/>
</svg>
