<svg width="20" height="20" viewBox="0 0 20 20" fill="none" xmlns="http://www.w3.org/2000/svg">
<path d="M17.85 12.77L18.77 12.73C18.99 12.72 19.21 12.54 19.26 12.34L19.56 10.88C19.59 10.67 19.46 10.42 19.26 10.32L18.43 9.91998C18.24 9.82998 18.08 9.56995 18.07 9.35995C18.07 9.35995 18.07 9.24996 18.05 8.99996C18.04 8.90996 18.04 8.90997 18.04 8.90997C18.03 8.81997 18.17 8.63996 18.35 8.52996L19.13 8.02996C19.31 7.90996 19.42 7.64996 19.36 7.43996L18.9 6.01995C18.82 5.81995 18.58 5.66995 18.36 5.67995L17.43 5.74996C17.21 5.76996 16.96 5.64995 16.86 5.48995C16.76 5.32995 16.56 4.76995 16.66 4.57995L17.09 3.75997C17.19 3.56997 17.15 3.28998 17 3.13998L15.89 2.13998C15.72 2.00998 15.44 1.99996 15.26 2.11996L14.49 2.63998C14.31 2.75998 14.03 2.78997 13.87 2.69997C13.71 2.60997 13.25 2.22997 13.25 2.00997L13.21 1.08996C13.2 0.869958 13.02 0.649968 12.82 0.599968L11.36 0.29995C11.15 0.26995 10.9 0.399968 10.8 0.599968L10.4 1.42995C10.31 1.61995 10.05 1.78997 9.84004 1.78997C9.84004 1.78997 9.73004 1.78996 9.48004 1.80996C9.39004 1.81996 9.39004 1.81997 9.39004 1.81997C9.30004 1.82997 9.12004 1.68997 9.01004 1.50997L8.51004 0.719963C8.40004 0.539963 8.13004 0.429952 7.92004 0.489952L6.50004 0.949974C6.30004 1.02997 6.15004 1.26995 6.16004 1.48995L6.23004 2.41998C6.25004 2.62998 6.13004 2.88995 5.97004 2.98995C5.81004 3.08995 5.26004 3.28996 5.06004 3.18996L4.24004 2.75997C4.05004 2.65997 3.77004 2.69997 3.62004 2.84997L2.62004 3.95995C2.49004 4.12995 2.48004 4.40996 2.60004 4.58996L3.12004 5.35995C3.24004 5.53995 3.27004 5.81997 3.18004 5.97997C3.09004 6.13997 2.71004 6.58997 2.49004 6.59997L1.56004 6.63998C1.35004 6.64998 1.12004 6.82996 1.07004 7.02996L0.770043 8.48995C0.740043 8.69995 0.870042 8.94995 1.07004 9.04995L1.90004 9.44997C2.09004 9.53997 2.25004 9.79997 2.26004 10.01C2.26004 10.01 2.26004 10.12 2.28004 10.37C2.29004 10.46 2.29004 10.46 2.29004 10.46C2.30004 10.55 2.16004 10.73 1.98004 10.84L1.19004 11.34C1.01004 11.45 0.900042 11.72 0.960042 11.93L1.42004 13.35C1.50004 13.55 1.74004 13.7 1.96004 13.69L2.89004 13.62C3.10004 13.6 3.36004 13.72 3.46004 13.88C3.56004 14.04 3.76004 14.6 3.66004 14.79L3.23004 15.6099C3.13004 15.7999 3.17004 16.08 3.32004 16.23L4.43004 17.23C4.60004 17.36 4.88004 17.37 5.06004 17.25L5.83004 16.73C6.01004 16.61 6.29004 16.58 6.45004 16.67C6.61004 16.76 7.06004 17.1399 7.07004 17.3599L7.11004 18.29C7.12004 18.51 7.30004 18.73 7.50004 18.79L8.96004 19.09C9.17004 19.12 9.42004 18.99 9.52004 18.79L9.92004 17.96C10.01 17.77 10.27 17.6 10.48 17.6C10.48 17.6 10.59 17.5999 10.84 17.5799C10.93 17.5699 10.93 17.57 10.93 17.57C11.02 17.56 11.2 17.7 11.31 17.88L11.81 18.67C11.92 18.85 12.19 18.96 12.4 18.9L13.82 18.44C14.02 18.36 14.17 18.12 14.16 17.91L14.09 16.98C14.07 16.77 14.19 16.51 14.35 16.41C14.51 16.31 15.07 16.11 15.26 16.21L16.08 16.64C16.27 16.74 16.55 16.6999 16.7 16.5499L17.7 15.44C17.83 15.27 17.84 14.99 17.72 14.81L17.2 14.04C17.08 13.86 17.05 13.58 17.14 13.42C17.25 13.23 17.63 12.78 17.85 12.77ZM10.18 16.06C6.66004 16.06 3.81004 13.2 3.81004 9.68996C3.81004 6.16996 6.67004 3.30996 10.18 3.30996C13.7 3.30996 16.55 6.16996 16.55 9.68996C16.55 13.2 13.69 16.06 10.18 16.06Z" fill="#BDDBED"/>
</svg>
