<svg width="26" height="17" viewBox="0 0 26 17" fill="none" xmlns="http://www.w3.org/2000/svg">
<path fill-rule="evenodd" clip-rule="evenodd" d="M1.60995 0.119995H22.19C22.6 0.119995 22.93 0.449999 22.93 0.889999V9.28999C20.33 8.21999 17.19 10.06 17.19 13.17C17.19 13.55 17.24 13.91 17.34 14.24L9.62995 14.29L5.13995 16.74L5.11995 14.24L1.61995 14.21C1.18995 14.21 0.849953 13.88 0.849953 13.44V0.880005C0.839953 0.450005 1.16995 0.119995 1.60995 0.119995ZM21.37 13.17H25.2C25.2 11.05 23.49 9.34 21.37 9.34V13.17ZM20.88 13.65V9.36C18.99 9.59 17.54 11.2 17.54 13.16C17.54 15.28 19.25 16.99 21.37 16.99C23.31 16.99 24.92 15.53 25.17 13.64H20.88V13.65ZM7.21995 10.11H12.02C12.02 10.11 12.04 10.14 12.04 10.19V10.78C12.04 10.83 12.02 10.86 12.02 10.86H7.21995C7.21995 10.86 7.19995 10.83 7.19995 10.78V10.19C7.19995 10.13 7.21995 10.11 7.21995 10.11ZM7.21995 4.03H12.02C12.02 4.03 12.04 4.08 12.04 4.11V4.72C12.04 4.77 12.02 4.8 12.02 4.8H7.21995C7.21995 4.8 7.19995 4.77 7.19995 4.72V4.11C7.19995 4.08 7.21995 4.03 7.21995 4.03ZM4.00995 2.60001H6.17995C6.27995 2.60001 6.32995 2.68 6.32995 2.75V4.64C6.32995 4.72 6.27995 4.78999 6.17995 4.78999H4.00995C3.90995 4.78999 3.85995 4.71 3.85995 4.64V2.75C3.84995 2.68 3.89995 2.60001 4.00995 2.60001ZM7.24995 2.60001H18C18.05 2.60001 18.08 2.62999 18.08 2.67999V3.27C18.08 3.32 18.05 3.37 18 3.37H7.24995C7.21995 3.37 7.16995 3.32 7.16995 3.27V2.67999C7.16995 2.62999 7.21995 2.60001 7.24995 2.60001ZM7.21995 7.07001H12.02C12.02 7.07001 12.04 7.09999 12.04 7.14999V7.75999C12.04 7.78999 12.02 7.84 12.02 7.84H7.21995C7.21995 7.84 7.19995 7.78999 7.19995 7.75999V7.14999C7.19995 7.08999 7.21995 7.07001 7.21995 7.07001ZM4.00995 5.61H6.17995C6.27995 5.61 6.32995 5.68999 6.32995 5.78999V7.67999C6.32995 7.75999 6.27995 7.83 6.17995 7.83H4.00995C3.90995 7.83 3.85995 7.74999 3.85995 7.67999V5.78999C3.84995 5.68999 3.89995 5.61 4.00995 5.61ZM7.24995 5.61H18C18.05 5.61 18.08 5.66001 18.08 5.71001V6.3C18.08 6.35 18.05 6.38 18 6.38H7.24995C7.21995 6.38 7.16995 6.35 7.16995 6.3V5.71001C7.16995 5.66001 7.21995 5.61 7.24995 5.61ZM4.00995 8.64999H6.17995C6.27995 8.64999 6.32995 8.73 6.32995 8.8V10.69C6.32995 10.79 6.27995 10.84 6.17995 10.84H4.00995C3.90995 10.84 3.85995 10.79 3.85995 10.69V8.8C3.84995 8.73 3.89995 8.64999 4.00995 8.64999ZM7.24995 8.64999H18C18.05 8.64999 18.08 8.68 18.08 8.73V9.34C18.08 9.37 18.05 9.42 18 9.42H7.24995C7.21995 9.42 7.16995 9.37 7.16995 9.34V8.73C7.16995 8.68 7.21995 8.64999 7.24995 8.64999Z" fill="#BDDBED"/>
</svg>
