<svg width="18" height="17" viewBox="0 0 18 17" fill="none" xmlns="http://www.w3.org/2000/svg">
<path fill-rule="evenodd" clip-rule="evenodd" d="M15.02 0H2.28003L0.150024 10.62H17.15L15.02 0ZM9.08003 6.60001C9.08003 6.38001 9.03002 6.21999 8.92002 6.07999C8.83002 5.93999 8.65003 5.81001 8.40003 5.70001C8.00003 5.54001 7.72003 5.36001 7.52003 5.14001C7.32003 4.92001 7.23002 4.64001 7.23002 4.26001C7.23002 3.90001 7.32003 3.61 7.52003 3.38C7.70003 3.15 7.95003 3.02 8.27003 2.97V2.26999H8.70003V3C9.02003 3.05 9.27003 3.2 9.45003 3.47C9.63003 3.72 9.72003 4.05999 9.72003 4.48999H9.06003C9.06003 4.19999 9.01003 3.94999 8.90003 3.76999C8.79003 3.58999 8.65003 3.5 8.47003 3.5C8.27003 3.5 8.13003 3.57 8.04003 3.72C7.95003 3.86 7.90003 4.04001 7.90003 4.26001C7.90003 4.48001 7.95003 4.65 8.04003 4.78C8.15003 4.92 8.33003 5.04999 8.58003 5.17999C8.97003 5.33999 9.26002 5.51999 9.46002 5.73999C9.64002 5.93999 9.75002 6.24001 9.75002 6.60001C9.75002 6.98001 9.64002 7.26 9.46002 7.5C9.26002 7.72 8.99003 7.84001 8.65003 7.89001V8.51999H8.24003V7.89001C7.90003 7.84001 7.63003 7.70999 7.40003 7.45999C7.19003 7.22999 7.08003 6.89001 7.08003 6.42001H7.74003C7.74003 6.76001 7.81002 7.01 7.94002 7.16C8.08002 7.3 8.25002 7.38 8.44002 7.38C8.64002 7.38 8.80002 7.30999 8.91002 7.17999C9.03002 7.00999 9.08003 6.83001 9.08003 6.60001ZM13.96 9.56H3.34002C3.34002 8.61 2.71003 7.81999 1.85003 7.54999L2.75002 3.10001C2.93002 3.15001 3.13002 3.19 3.34002 3.19C4.51003 3.19 5.46002 2.24001 5.46002 1.07001H11.84C11.84 2.24001 12.79 3.19 13.96 3.19C14.18 3.19 14.37 3.15001 14.55 3.10001L15.45 7.54999C14.59 7.81999 13.96 8.61 13.96 9.56ZM0.150024 11.69H17.15V12.75H0.150024V11.69ZM0.150024 13.81H17.15V14.87H0.150024V13.81ZM0.150024 15.92H17.15V17H0.150024V15.92Z" fill="#BDDBED"/>
</svg>
