<svg width="29" height="25" viewBox="0 0 29 25" fill="none" xmlns="http://www.w3.org/2000/svg">
<path d="M28.28 3.65003C27.38 4.06003 26.38 4.29997 25.41 4.46997C25.87 4.38997 26.55 3.55997 26.82 3.21997C27.23 2.69997 27.58 2.11998 27.77 1.47998C27.8 1.42998 27.81 1.37002 27.76 1.33002C27.7 1.31002 27.66 1.32003 27.61 1.34003C26.53 1.92003 25.4 2.34002 24.21 2.64002C24.11 2.66002 24.04 2.64002 23.98 2.58002C23.88 2.47002 23.79 2.36003 23.68 2.28003C23.18 1.85003 22.64 1.52002 22.03 1.27002C21.23 0.950022 20.36 0.809987 19.5 0.859987C18.66 0.909987 17.84 1.14998 17.1 1.53998C16.36 1.92998 15.69 2.47 15.17 3.12C14.62 3.79 14.22 4.58999 14.02 5.42999C13.82 6.23999 13.84 7.05 13.96 7.87C13.98 8.01 13.97 8.03001 13.84 8.01001C9.17004 7.31001 5.30004 5.64 2.15004 2.06C2.01004 1.9 1.94003 1.90001 1.83003 2.07001C0.45003 4.13001 1.12004 7.44001 2.84004 9.07001C3.07004 9.29001 3.30001 9.50001 3.56001 9.70001C3.47001 9.72001 2.32 9.60001 1.3 9.07001C1.16 8.98001 1.10003 9.03 1.08003 9.19C1.07003 9.41 1.09001 9.61999 1.12001 9.85999C1.38001 11.95 2.83001 13.88 4.81001 14.64C5.05001 14.74 5.31001 14.83 5.56001 14.87C5.11001 14.97 4.63999 15.04 3.34999 14.94C3.18999 14.91 3.13002 14.99 3.19002 15.14C4.16002 17.79 6.26004 18.58 7.84004 19.03C8.05004 19.07 8.25998 19.07 8.46998 19.12C8.45998 19.14 8.44001 19.14 8.43001 19.16C7.91001 19.96 6.10002 20.55 5.26002 20.84C3.73002 21.38 2.06001 21.62 0.440015 21.46C0.180015 21.42 0.13001 21.42 0.0600101 21.46C-0.00998989 21.5 0.0500174 21.57 0.130017 21.63C0.460017 21.85 0.790017 22.04 1.13002 22.23C2.16002 22.78 3.22999 23.21 4.34999 23.52C10.14 25.12 16.66 23.94 21.01 19.62C24.42 16.23 25.62 11.55 25.62 6.85999C25.62 6.67999 25.84 6.57998 25.96 6.47998C26.85 5.80998 27.57 5.01 28.23 4.12C28.38 3.92 28.38 3.73998 28.38 3.66998C28.38 3.65998 28.38 3.65003 28.38 3.65003C28.4 3.58003 28.4 3.60003 28.28 3.65003Z" fill="#BDDBED"/>
</svg>
