<svg width="19" height="17" viewBox="0 0 19 17" fill="none" xmlns="http://www.w3.org/2000/svg">
<path fill-rule="evenodd" clip-rule="evenodd" d="M1.77004 4.09999H17.09C17.4 4.09999 17.67 4.21998 17.88 4.42998C18.07 4.61998 18.21 4.88998 18.21 5.19998V7.46999V7.54999H18.13H13.4C13.01 7.54999 12.65 7.69998 12.39 7.97998C12.12 8.22998 11.96 8.59999 11.96 8.98999V11.95C11.96 12.36 12.12 12.71 12.39 12.96C12.64 13.23 13.01 13.39 13.4 13.39H18.12H18.2V13.47V15.74C18.2 16.05 18.06 16.32 17.87 16.53C17.66 16.72 17.39 16.84 17.08 16.84H1.77004C1.48004 16.84 1.19004 16.72 1.00004 16.53C0.810044 16.32 0.670044 16.05 0.670044 15.74V5.19998C0.670044 4.88998 0.810044 4.61998 1.00004 4.42998C1.19004 4.20998 1.48004 4.09999 1.77004 4.09999ZM13.4 8.33998H18.38C18.73 8.33998 19 8.62998 19 8.97998V11.94C19 12.29 18.73 12.58 18.38 12.58H13.4C13.05 12.58 12.78 12.29 12.78 11.94V8.97998C12.78 8.62998 13.06 8.33998 13.4 8.33998ZM1.75004 3.43999C5.18004 2.58999 11.22 1.71999 14.63 0.859985C14.94 0.859985 15.13 0.99998 15.25 1.22998C15.44 1.96998 15.64 2.69999 15.83 3.43999C12.01 3.43999 5.56004 3.43999 1.75004 3.43999ZM15.81 9.18999C16.51 9.18999 17.07 9.72998 17.07 10.43C17.07 11.11 16.51 11.67 15.81 11.67C15.13 11.67 14.57 11.11 14.57 10.43C14.57 9.72998 15.13 9.18999 15.81 9.18999Z" fill="white"/>
</svg>
